<svg xmlns="http://www.w3.org/2000/svg" xmlns:xlink="http://www.w3.org/1999/xlink" width="500" zoomAndPan="magnify" viewBox="0 0 375 374.999991" height="500" preserveAspectRatio="xMidYMid meet" version="1.0"><defs><g/><clipPath id="e36b61e688"><path d="M 8.636719 12.601562 L 363.210938 12.601562 L 363.210938 367.175781 L 8.636719 367.175781 Z M 8.636719 12.601562 " clip-rule="nonzero"/></clipPath><clipPath id="632e2ced26"><path d="M 185.921875 12.601562 C 88.007812 12.601562 8.636719 91.976562 8.636719 189.886719 C 8.636719 287.800781 88.007812 367.175781 185.921875 367.175781 C 283.835938 367.175781 363.210938 287.800781 363.210938 189.886719 C 363.210938 91.976562 283.835938 12.601562 185.921875 12.601562 Z M 185.921875 12.601562 " clip-rule="nonzero"/></clipPath></defs><g clip-path="url(#e36b61e688)"><g clip-path="url(#632e2ced26)"><path stroke-linecap="butt" transform="matrix(0.75, 0, 0, 0.75, 8.634834, 12.60094)" fill="none" stroke-linejoin="miter" d="M 236.382737 0.000829397 C 105.830645 0.000829397 0.0025132 105.83417 0.0025132 236.381053 C 0.0025132 366.933145 105.830645 472.766485 236.382737 472.766485 C 366.934829 472.766485 472.768169 366.933145 472.768169 236.381053 C 472.768169 105.83417 366.934829 0.000829397 236.382737 0.000829397 Z M 236.382737 0.000829397 " stroke="#000000" stroke-width="20" stroke-opacity="1" stroke-miterlimit="4"/></g></g><path stroke-linecap="round" transform="matrix(0, 0.75, -0.75, 0, 189.808878, 109.61551)" fill="none" stroke-linejoin="miter" d="M 2.002237 2.00038 L 226.168919 2.00038 " stroke="#000000" stroke-width="4" stroke-opacity="1" stroke-miterlimit="4"/><g fill="#000000" fill-opacity="1"><g transform="translate(161.952137, 143.900763)"><g><path d="M -4.484375 10.234375 L -10.5 10.234375 L -10.5 79.484375 L -4.484375 79.484375 L -4.484375 89.59375 L -31.359375 89.59375 C -37.503906 89.59375 -43.304688 88.546875 -48.765625 86.453125 C -54.222656 84.367188 -59 81.363281 -63.09375 77.4375 C -67.195312 73.507812 -70.441406 68.796875 -72.828125 63.296875 C -75.222656 57.796875 -76.421875 51.585938 -76.421875 44.671875 C -76.421875 39.640625 -75.546875 34.476562 -73.796875 29.1875 C -72.046875 23.894531 -69.207031 19.09375 -65.28125 14.78125 C -61.351562 10.46875 -56.253906 6.925781 -49.984375 4.15625 C -43.710938 1.382812 -36.054688 0 -27.015625 0 L -4.484375 0 Z M -21.125 79.484375 L -21.125 10.234375 L -30.078125 10.234375 C -35.109375 10.234375 -39.800781 11.046875 -44.15625 12.671875 C -48.507812 14.296875 -52.285156 16.617188 -55.484375 19.640625 C -58.679688 22.671875 -61.195312 26.296875 -63.03125 30.515625 C -64.875 34.742188 -65.796875 39.503906 -65.796875 44.796875 C -65.796875 50.085938 -64.875 54.863281 -63.03125 59.125 C -61.195312 63.394531 -58.679688 67.046875 -55.484375 70.078125 C -52.285156 73.109375 -48.507812 75.429688 -44.15625 77.046875 C -39.800781 78.671875 -35.109375 79.484375 -30.078125 79.484375 Z M -21.125 79.484375 "/></g></g></g><g fill="#000000" fill-opacity="1"><g transform="translate(216.284097, 231.905346)"><g><path d="M 4.5 -10.28125 L 10.53125 -10.28125 L 10.53125 -79.765625 L 4.5 -79.765625 L 4.5 -89.90625 L 31.46875 -89.90625 C 37.632812 -89.90625 43.457031 -88.851562 48.9375 -86.75 C 54.414062 -84.65625 59.207031 -81.640625 63.3125 -77.703125 C 67.425781 -73.765625 70.679688 -69.035156 73.078125 -63.515625 C 75.472656 -57.992188 76.671875 -51.765625 76.671875 -44.828125 C 76.671875 -39.773438 75.789062 -34.59375 74.03125 -29.28125 C 72.28125 -23.976562 69.4375 -19.160156 65.5 -14.828125 C 61.5625 -10.503906 56.445312 -6.953125 50.15625 -4.171875 C 43.863281 -1.390625 36.175781 0 27.09375 0 L 4.5 0 Z M 21.1875 -79.765625 L 21.1875 -10.28125 L 30.1875 -10.28125 C 35.238281 -10.28125 39.945312 -11.09375 44.3125 -12.71875 C 48.675781 -14.34375 52.460938 -16.675781 55.671875 -19.71875 C 58.890625 -22.757812 61.414062 -26.394531 63.25 -30.625 C 65.09375 -34.863281 66.015625 -39.640625 66.015625 -44.953125 C 66.015625 -50.265625 65.09375 -55.0625 63.25 -59.34375 C 61.414062 -63.625 58.890625 -67.28125 55.671875 -70.3125 C 52.460938 -73.351562 48.675781 -75.6875 44.3125 -77.3125 C 39.945312 -78.945312 35.238281 -79.765625 30.1875 -79.765625 Z M 21.1875 -79.765625 "/></g></g></g></svg>